<?xml version="1.0" standalone="no"?><!DOCTYPE svg PUBLIC "-//W3C//DTD SVG 1.1//EN" "http://www.w3.org/Graphics/SVG/1.1/DTD/svg11.dtd"><svg t="1527749532867" class="icon" style="" viewBox="0 0 1024 1024" version="1.1" xmlns="http://www.w3.org/2000/svg" p-id="6164" xmlns:xlink="http://www.w3.org/1999/xlink" width="200" height="200"><defs><style type="text/css"></style></defs><path d="M609.848453 481.912487h-210.811811a30.115973 30.115973 0 0 1 0-60.231946h210.811811a30.115973 30.115973 0 0 1 0 60.231946zM685.138385 632.492351h-361.391676a30.115973 30.115973 0 0 1 0-60.231945h361.391676a30.115973 30.115973 0 0 1 0 60.231945z" fill="#515151" p-id="6165"></path><path d="M511.97154 1024a511.97154 511.97154 0 1 1 352.055724-140.189854 30.115973 30.115973 0 0 1-41.560042-43.668161A451.739594 451.739594 0 1 0 511.97154 963.768054a30.115973 30.115973 0 0 1 0 60.231946z" fill="#515151" p-id="6166"></path><path d="M978.769121 1024H511.97154a30.115973 30.115973 0 0 1 0-60.231946h387.441993l-76.193412-67.3092a30.115973 30.115973 0 1 1 40.054244-45.173959l135.521878 120.463892A30.115973 30.115973 0 0 1 978.769121 1024z" fill="#515151" p-id="6167"></path></svg>