<?xml version="1.0" standalone="no"?><!DOCTYPE svg PUBLIC "-//W3C//DTD SVG 1.1//EN" "http://www.w3.org/Graphics/SVG/1.1/DTD/svg11.dtd"><svg t="1527749150657" class="icon" style="" viewBox="0 0 1024 1024" version="1.1" xmlns="http://www.w3.org/2000/svg" p-id="1396" xmlns:xlink="http://www.w3.org/1999/xlink" width="200" height="200"><defs><style type="text/css"></style></defs><path d="M678.813349 583.015507c-0.710518 4.165176 7.689786 93.813195-144.224816 165.131641-17.996798 8.457266-26.093309 30.688193-18.106724 49.673122 5.916988 14.052472 18.931165 22.368834 32.588705 22.368834 4.849712 0 9.744393-1.034299 14.458197-3.242801 123.841635-58.136384 166.107979-128.861232 179.788703-177.854015 43.132756 20.887838 108.270393 65.720242 119.501778 148.763738 2.781114 20.581846 20.864854 34.871157 40.331455 31.958132 19.485789-2.960992 33.013617-22.018072 30.232502-42.602915-15.877235-117.396205-102.294444-178.28872-159.684334-206.243567-7.712771-20.363194-11.824983-37.112837-13.784654-50.949256 47.83237 25.605639 110.222869 37.916093 175.69248 3.320749 17.598069-9.281707 24.736229-31.889379 15.925203-50.496763-8.786043-18.589396-30.208519-26.129684-47.80239-16.827591-87.157707 46.058572-160.321902-41.284409-163.30388-44.901357-8.118496-10.033597-20.618021-14.8973-32.967648-12.712781-52.91992 9.329075-152.957895 56.25366-152.981878 167.259598 0 20.771917 15.950186 37.643478 35.636838 37.643478 19.687652 0 35.638637-16.844579 35.638637-37.643478 0-38.520683 23.781876-61.845869 47.361889-75.504608-1.027303 21.693292 1.267141 47.673477 9.427608 78.204777C682.541021 568.360444 680.096678 575.493607 678.813349 583.015507zM810.261027 285.084305c0 41.922377-32.186178 75.921725-71.874069 75.921725-39.685094 0-71.875069-33.999348-71.875069-75.921725 0-41.922976 32.190175-75.922325 71.875069-75.922325C778.075049 209.16198 810.261027 243.161329 810.261027 285.084305L810.261027 285.084305z" p-id="1397" fill="#2c2c2c"></path><path d="M230.92022 583.015507c-0.710518 4.165176 7.689786 93.813195-144.224816 165.131641-17.996199 8.457266-26.093708 30.688193-18.107123 49.673122 5.917388 14.052472 18.931165 22.368834 32.589304 22.368834 4.849112 0 9.744393-1.034299 14.458197-3.242801 123.841635-58.136384 166.107979-128.861232 179.788703-177.854015 43.133156 20.887838 108.269793 65.720242 119.501578 148.763738 2.781114 20.581846 20.864254 34.871157 40.331455 31.958132 19.485789-2.960992 33.013617-22.018072 30.232502-42.602915-15.877235-117.396205-102.294444-178.28872-159.683734-206.243567-7.71377-20.363194-11.825382-37.112837-13.785653-50.949256 47.832969 25.605639 110.224068 37.916093 175.69288 3.320749 17.598069-9.281707 24.736229-31.889379 15.925203-50.496763-8.786043-18.589396-30.208519-26.129684-47.80259-16.827591-87.157107 46.058572-160.322301-41.284409-163.30388-44.901357-8.118496-10.033597-20.618421-14.8973-32.967048-12.712781-52.92092 9.329075-152.958894 56.25366-152.982878 167.259598 0 20.771917 15.950586 37.643478 35.637238 37.643478 19.687652 0 35.638237-16.844579 35.638237-37.643478 0-38.520683 23.782875-61.845869 47.362288-75.504608-1.027703 21.693292 1.267541 47.673477 9.428008 78.204777C234.648292 568.360444 232.20295 575.493607 230.92022 583.015507zM362.367899 285.084305c0 41.922377-32.186178 75.921725-71.87367 75.921725-39.685493 0-71.876068-33.999348-71.876068-75.921725 0-41.922976 32.190575-75.922325 71.876068-75.922325C330.181721 209.16198 362.367899 243.161329 362.367899 285.084305L362.367899 285.084305z" p-id="1398" fill="#2c2c2c"></path></svg>