<?xml version="1.0" standalone="no"?><!DOCTYPE svg PUBLIC "-//W3C//DTD SVG 1.1//EN" "http://www.w3.org/Graphics/SVG/1.1/DTD/svg11.dtd"><svg t="1527760486882" class="icon" style="" viewBox="0 0 1024 1024" version="1.1" xmlns="http://www.w3.org/2000/svg" p-id="2555" xmlns:xlink="http://www.w3.org/1999/xlink" width="200" height="200"><defs><style type="text/css"></style></defs><path d="M510.976716 128.626761c-211.205756 0-382.401119 171.195363-382.401119 382.401119s171.195363 382.401119 382.401119 382.401119S893.377836 722.131308 893.377836 510.925552 722.182472 128.626761 510.976716 128.626761zM736.508444 736.45728c-29.265914 29.265914-63.443589 52.289797-101.407415 68.355351-29.265914 12.381733-59.964425 20.158689-91.481563 23.433197L543.619466 704.019187l-63.443589 0 0 124.431298c-32.233437-3.069851-63.443589-10.949136-93.323474-23.535525-37.963825-16.065554-72.039173-39.089437-101.407415-68.355351-29.265914-29.265914-52.289797-63.443589-68.355351-101.407415-12.381733-29.265914-20.158689-59.964425-23.433197-91.481563l126.273209 0 0-63.443589L193.554112 480.227041c3.069851-32.233437 10.949136-63.443589 23.535525-93.323474 16.065554-37.963825 39.089437-72.039173 68.355351-101.407415 29.265914-29.265914 63.443589-52.289797 101.407415-68.355351 29.879884-12.58639 61.090037-20.465674 93.323474-23.535525l0 125.863895 63.443589 0L543.619466 193.707605c31.517138 3.172179 62.215649 11.051464 91.481563 23.433197 37.963825 16.065554 72.039173 39.089437 101.407415 68.355351 29.265914 29.265914 52.289797 63.443589 68.355351 101.407415 12.58639 29.879884 20.465674 61.090037 23.535525 93.323474L703.251724 480.227041l0 63.443589 125.045268 0c-3.172179 31.517138-11.051464 62.215649-23.433197 91.481563C788.798241 673.01369 765.876686 707.089038 736.508444 736.45728z" p-id="2556" fill="#2c2c2c"></path><path d="M516.093135 415.248526c-56.280604 0-100.793445 43.489557-100.793445 99.770161s44.512841 101.816728 100.793445 101.816728S616.886579 571.29929 616.886579 515.018687 572.373738 415.248526 516.093135 415.248526z" p-id="2557" fill="#2c2c2c"></path></svg>