<?xml version="1.0" standalone="no"?><!DOCTYPE svg PUBLIC "-//W3C//DTD SVG 1.1//EN" "http://www.w3.org/Graphics/SVG/1.1/DTD/svg11.dtd"><svg t="1527755096821" class="icon" style="" viewBox="0 0 1024 1024" version="1.1" xmlns="http://www.w3.org/2000/svg" p-id="14486" xmlns:xlink="http://www.w3.org/1999/xlink" width="200" height="200"><defs><style type="text/css"></style></defs><path d="M512 0.001287c-282.769282 0-511.998713 229.229431-511.998713 511.998713 0 282.769282 229.229431 511.998713 511.998713 511.998713 282.767995 0 511.998713-229.228144 511.998713-511.998713C1023.998713 229.230718 794.767995 0.001287 512 0.001287zM748.560448 544.492778 542.994656 544.492778l0 205.560645c0 17.279887-13.946437 31.226324-31.221176 31.226324-17.279887 0-31.226324-13.946437-31.226324-31.226324L480.547156 544.492778l-205.559357 0c-17.279887 0-31.226324-13.946437-31.226324-31.226324s13.946437-31.226324 31.226324-31.226324l205.666182 0 0-205.559357c0-17.279887 13.94515-31.226324 31.219889-31.226324 17.279887 0 31.226324 13.946437 31.226324 31.226324L543.100194 482.041417l205.560645 0c17.17435 0 31.120786 13.946437 31.120786 31.226324S765.835188 544.492778 748.560448 544.492778z" p-id="14487" fill="#515151"></path></svg>